<svg width="549" height="541" viewBox="0 0 549 541" fill="none" xmlns="http://www.w3.org/2000/svg">
<path d="M418.234 504.166L253.117 541L224.792 463.106L259.746 455.86V227.622L268.786 225.207C248.296 209.507 222.995 198.035 197.683 189.581L215.763 169.051L143.444 167.843L142.841 210.111H233.229L232.024 318.186L226.6 415.996C224.189 456.452 216.355 502.947 176.579 524.685C162.115 532.535 146.446 535.554 130.174 537.366C121.134 508.997 107.876 483.032 97.0281 466.729C85.5776 491.486 73.5244 515.035 57.8553 537.97C37.9675 512.016 17.4771 486.04 0 470.352C47.6101 394.873 65.6787 334.489 67.4866 233.661L68.692 167.239H6.65157V89.9486H94.6286C88.602 67.6068 78.9595 47.0765 66.3036 24.1421L137.417 0C150.676 23.5495 162.126 51.9296 172.974 79.102C162.126 82.1212 151.279 85.1403 141.033 88.7633L232.626 89.971V147.335C262.157 104.463 286.866 53.7411 301.329 1.21885C326.63 9.06866 353.158 16.3146 379.061 24.7683C374.24 44.0909 368.214 59.1867 362.187 76.6979L539.96 77.3017V156.404L465.23 155.8C482.105 170.896 500.787 184.784 519.459 198.672C488.131 218.598 454.985 235.506 421.839 251.205C424.25 268.113 427.866 285.624 433.892 300.72C451.369 284.416 468.244 267.509 481.502 248.186L542.973 295.285C517.059 324.269 492.35 345.403 464.628 366.537C484.516 399.748 517.059 428.732 549 449.251C527.907 473.404 512.238 499.973 497.171 525.334C463.434 504.804 438.122 477.631 419.44 448.043L418.234 504.189V504.166ZM140.431 288.609C134.404 341.747 122.954 405.138 103.066 455.256C113.311 454.652 124.159 454.652 133.801 452.237C141.636 449.821 147.06 442.575 150.073 435.329C156.703 389.449 159.716 337.52 160.318 288.609H140.431ZM323.628 156.381C310.369 179.327 295.906 201.065 278.44 220.388C332.668 205.896 386.907 185.969 435.12 157.589L323.628 156.381ZM339.297 441.983C361.595 437.756 381.472 434.737 406.181 429.302C381.472 382.203 364.006 333.293 356.171 279.552C350.145 281.363 344.721 283.779 339.297 286.194V441.972V441.983Z" fill="#F20C25"/>
</svg>
